<svg width="251" height="200" viewBox="0 0 251 200" fill="none" xmlns="http://www.w3.org/2000/svg">
<rect x="1.01562" y="1" width="248" height="198" rx="9" fill="#012035" stroke="#033E65" stroke-width="2"/>
<path d="M66.3594 124.916C66.3594 125.235 66.2585 125.495 66.0566 125.697C65.8548 125.899 65.5944 126 65.2754 126H60.2363V110.717H65.2363C65.5553 110.717 65.8158 110.818 66.0176 111.02C66.2194 111.221 66.3203 111.482 66.3203 111.801V116.342C66.3203 116.745 66.138 117.084 65.7734 117.357C65.4154 117.572 65.0573 117.787 64.6992 118.002L65.8516 118.744C66.1901 118.952 66.3594 119.278 66.3594 119.721V124.916ZM64.9531 116.518V111.918H61.5938V117.436H63.5957L64.9531 116.518ZM64.9922 124.799V119.516L63.6152 118.617H61.5938V124.799H64.9922ZM74.0352 124.896C74.0352 125.632 73.6673 126 72.9316 126H69.6699C68.9408 126 68.5762 125.632 68.5762 124.896V117.602C68.5762 116.866 68.9408 116.498 69.6699 116.498H72.9316C73.6673 116.498 74.0352 116.866 74.0352 117.602V124.896ZM72.7363 124.857V117.641H69.875V124.857H72.7363ZM79.5723 126H77.7266C76.9974 126 76.6328 125.632 76.6328 124.896V117.641H75.4902V116.498H76.6328V113.539H77.9121V116.498H79.5723V117.641H77.9121V124.857H79.5723V126ZM85.1289 120.775H81.1055V119.564H85.1289V120.775ZM93.7422 124.916C93.7422 125.235 93.638 125.495 93.4297 125.697C93.2279 125.899 92.9674 126 92.6484 126H88.3711C88.0521 126 87.7917 125.899 87.5898 125.697C87.388 125.495 87.2871 125.235 87.2871 124.916V111.801C87.2871 111.482 87.388 111.221 87.5898 111.02C87.7917 110.818 88.0521 110.717 88.3711 110.717H92.6484C92.9674 110.717 93.2279 110.818 93.4297 111.02C93.638 111.221 93.7422 111.482 93.7422 111.801V124.916ZM92.3848 124.799V111.918H88.6445V124.799H92.3848ZM101.496 123.959C101.496 124.545 101.304 125.033 100.92 125.424C100.536 125.808 100.054 126 99.4746 126H97.3359V129.604H96.0371V116.498H97.3359V116.762C97.8503 116.697 98.3646 116.632 98.8789 116.566C99.5299 116.482 100.041 116.439 100.412 116.439C101.135 116.439 101.496 116.794 101.496 117.504V123.959ZM100.197 123.764V117.66L97.3359 117.738V124.857H99.1328C99.8424 124.857 100.197 124.493 100.197 123.764ZM106.994 126H105.148C104.419 126 104.055 125.632 104.055 124.896V117.641H102.912V116.498H104.055V113.539H105.334V116.498H106.994V117.641H105.334V124.857H106.994V126ZM110.031 114.418H108.713V112.777H110.031V114.418ZM110.012 126H108.732V116.498H110.012V126ZM121.779 126H120.48V117.66L117.648 117.738V126H116.359V117.66L113.527 117.738V126H112.229V116.498H113.527V116.762C114.035 116.697 114.543 116.628 115.051 116.557C115.669 116.479 116.18 116.439 116.584 116.439C116.981 116.439 117.274 116.56 117.463 116.801C118.01 116.729 118.553 116.654 119.094 116.576C119.803 116.485 120.34 116.439 120.705 116.439C121.421 116.439 121.779 116.794 121.779 117.504V126ZM125.266 114.418H123.947V112.777H125.266V114.418ZM125.246 126H123.967V116.498H125.246V126ZM132.014 126H127.014V125.404L130.48 117.66H127.375V116.498H132.014V117.104L128.537 124.838H132.014V126ZM139.182 124.896C139.182 125.632 138.817 126 138.088 126H134.963C134.234 126 133.869 125.632 133.869 124.896V117.602C133.869 116.866 134.234 116.498 134.963 116.498H138.088C138.817 116.498 139.182 116.866 139.182 117.602V121.02L138.742 121.479H135.129V124.916H137.922V123.178H139.182V124.896ZM137.922 120.443V117.582H135.129V120.443H137.922ZM146.73 126H145.441V125.736C144.048 125.951 143.277 126.059 143.127 126.059C142.574 126.059 142.128 125.873 141.789 125.502C141.451 125.124 141.281 124.656 141.281 124.096V118.539C141.281 117.953 141.473 117.468 141.857 117.084C142.242 116.693 142.723 116.498 143.303 116.498H145.441V110.717H146.73V126ZM145.441 124.818V117.641H143.645C142.928 117.641 142.57 118.008 142.57 118.744V123.822C142.57 124.551 142.928 124.916 143.645 124.916C143.814 124.916 144.413 124.883 145.441 124.818ZM159.006 118.842C159.006 119.161 158.902 119.424 158.693 119.633C158.492 119.835 158.231 119.936 157.912 119.936H154.309V126H152.951V110.717H157.912C158.231 110.717 158.492 110.818 158.693 111.02C158.902 111.221 159.006 111.482 159.006 111.801V118.842ZM157.648 118.725V111.918H154.309V118.725H157.648ZM166.369 126H165.09V125.736C164.576 125.808 164.061 125.876 163.547 125.941C162.909 126.02 162.398 126.059 162.014 126.059C161.304 126.059 160.949 125.707 160.949 125.004V121.537C160.949 120.808 161.317 120.443 162.053 120.443H165.109V117.582H162.316V119.203H161.057V117.602C161.057 116.866 161.421 116.498 162.15 116.498H165.275C166.005 116.498 166.369 116.866 166.369 117.602V126ZM165.109 124.818V121.459H162.209V124.877L165.109 124.818ZM173.898 128.5C173.898 129.236 173.531 129.604 172.795 129.604H169.709C168.96 129.604 168.586 129.138 168.586 128.207C168.586 128.096 168.589 127.93 168.596 127.709C168.609 127.494 168.615 127.338 168.615 127.24H169.895V128.5H172.609V126H170.471C169.891 126 169.41 125.808 169.025 125.424C168.641 125.033 168.449 124.545 168.449 123.959V118.402C168.449 117.842 168.618 117.377 168.957 117.006C169.296 116.628 169.742 116.439 170.295 116.439C170.445 116.439 171.216 116.547 172.609 116.762V116.498H173.898V128.5ZM172.609 124.857V117.68C171.581 117.615 170.982 117.582 170.812 117.582C170.096 117.582 169.738 117.947 169.738 118.676V123.764C169.738 124.493 170.096 124.857 170.812 124.857H172.609ZM181.35 124.896C181.35 125.632 180.985 126 180.256 126H177.131C176.402 126 176.037 125.632 176.037 124.896V117.602C176.037 116.866 176.402 116.498 177.131 116.498H180.256C180.985 116.498 181.35 116.866 181.35 117.602V121.02L180.91 121.479H177.297V124.916H180.09V123.178H181.35V124.896ZM180.09 120.443V117.582H177.297V120.443H180.09ZM188.615 124.896C188.615 125.632 188.247 126 187.512 126H184.533C183.798 126 183.43 125.632 183.43 124.896V122.738H184.709V124.877H187.336V122.982L183.938 120.199C183.612 119.939 183.449 119.6 183.449 119.184V117.602C183.449 116.866 183.817 116.498 184.553 116.498H187.492C188.228 116.498 188.596 116.866 188.596 117.602V119.496H187.336V117.621H184.709V119.281L188.137 122.064C188.456 122.318 188.615 122.663 188.615 123.1V124.896Z" fill="#FF0004"/>
<path d="M66.5742 88.916C66.5742 89.235 66.4701 89.4954 66.2617 89.6973C66.0599 89.8991 65.7995 90 65.4805 90H61.3203C61.0013 90 60.7409 89.8991 60.5391 89.6973C60.3372 89.4954 60.2363 89.235 60.2363 88.916V74.7168H61.5938V88.7988H65.2168V74.7168H66.5742V88.916ZM73.9863 88.8965C73.9863 89.6322 73.6185 90 72.8828 90H69.9043C69.1686 90 68.8008 89.6322 68.8008 88.8965V86.7383H70.0801V88.877H72.707V86.9824L69.3086 84.1992C68.9831 83.9388 68.8203 83.6003 68.8203 83.1836V81.6016C68.8203 80.8659 69.1882 80.498 69.9238 80.498H72.8633C73.599 80.498 73.9668 80.8659 73.9668 81.6016V83.4961H72.707V81.6211H70.0801V83.2812L73.5078 86.0645C73.8268 86.3184 73.9863 86.6634 73.9863 87.0996V88.8965ZM81.3691 88.8965C81.3691 89.6322 81.0046 90 80.2754 90H77.1504C76.4212 90 76.0566 89.6322 76.0566 88.8965V81.6016C76.0566 80.8659 76.4212 80.498 77.1504 80.498H80.2754C81.0046 80.498 81.3691 80.8659 81.3691 81.6016V85.0195L80.9297 85.4785H77.3164V88.916H80.1094V87.1777H81.3691V88.8965ZM80.1094 84.4434V81.582H77.3164V84.4434H80.1094ZM88.4883 83.623H87.209V81.6602L84.8164 81.7383V90H83.5176V80.498H84.8164V80.7617C85.2461 80.6966 85.679 80.6283 86.1152 80.5566C86.6361 80.4785 87.069 80.4395 87.4141 80.4395C88.1302 80.4395 88.4883 80.7943 88.4883 81.5039V83.623ZM94.0352 84.7754H90.0117V83.5645H94.0352V84.7754ZM102.648 88.916C102.648 89.235 102.544 89.4954 102.336 89.6973C102.134 89.8991 101.874 90 101.555 90H97.2773C96.9583 90 96.6979 89.8991 96.4961 89.6973C96.2943 89.4954 96.1934 89.235 96.1934 88.916V75.8008C96.1934 75.4818 96.2943 75.2214 96.4961 75.0195C96.6979 74.8177 96.9583 74.7168 97.2773 74.7168H101.555C101.874 74.7168 102.134 74.8177 102.336 75.0195C102.544 75.2214 102.648 75.4818 102.648 75.8008V88.916ZM101.291 88.7988V75.918H97.5508V88.7988H101.291ZM110.402 87.959C110.402 88.5449 110.21 89.0332 109.826 89.4238C109.442 89.8079 108.96 90 108.381 90H106.242V93.6035H104.943V80.498H106.242V80.7617C106.757 80.6966 107.271 80.6315 107.785 80.5664C108.436 80.4818 108.947 80.4395 109.318 80.4395C110.041 80.4395 110.402 80.7943 110.402 81.5039V87.959ZM109.104 87.7637V81.6602L106.242 81.7383V88.8574H108.039C108.749 88.8574 109.104 88.4928 109.104 87.7637ZM115.9 90H114.055C113.326 90 112.961 89.6322 112.961 88.8965V81.6406H111.818V80.498H112.961V77.5391H114.24V80.498H115.9V81.6406H114.24V88.8574H115.9V90ZM118.938 78.418H117.619V76.7773H118.938V78.418ZM118.918 90H117.639V80.498H118.918V90ZM130.686 90H129.387V81.6602L126.555 81.7383V90H125.266V81.6602L122.434 81.7383V90H121.135V80.498H122.434V80.7617C122.941 80.6966 123.449 80.6283 123.957 80.5566C124.576 80.4785 125.087 80.4395 125.49 80.4395C125.887 80.4395 126.18 80.5599 126.369 80.8008C126.916 80.7292 127.46 80.6543 128 80.5762C128.71 80.485 129.247 80.4395 129.611 80.4395C130.327 80.4395 130.686 80.7943 130.686 81.5039V90ZM134.172 78.418H132.854V76.7773H134.172V78.418ZM134.152 90H132.873V80.498H134.152V90ZM140.92 90H135.92V89.4043L139.387 81.6602H136.281V80.498H140.92V81.1035L137.443 88.8379H140.92V90ZM148.088 88.8965C148.088 89.6322 147.723 90 146.994 90H143.869C143.14 90 142.775 89.6322 142.775 88.8965V81.6016C142.775 80.8659 143.14 80.498 143.869 80.498H146.994C147.723 80.498 148.088 80.8659 148.088 81.6016V85.0195L147.648 85.4785H144.035V88.916H146.828V87.1777H148.088V88.8965ZM146.828 84.4434V81.582H144.035V84.4434H146.828ZM155.637 90H154.348V89.7363C152.954 89.9512 152.183 90.0586 152.033 90.0586C151.48 90.0586 151.034 89.873 150.695 89.502C150.357 89.1243 150.188 88.6556 150.188 88.0957V82.5391C150.188 81.9531 150.38 81.4681 150.764 81.084C151.148 80.6934 151.63 80.498 152.209 80.498H154.348V74.7168H155.637V90ZM154.348 88.8184V81.6406H152.551C151.835 81.6406 151.477 82.0085 151.477 82.7441V87.8223C151.477 88.5514 151.835 88.916 152.551 88.916C152.72 88.916 153.319 88.8835 154.348 88.8184ZM167.912 82.8418C167.912 83.1608 167.808 83.4245 167.6 83.6328C167.398 83.8346 167.137 83.9355 166.818 83.9355H163.215V90H161.857V74.7168H166.818C167.137 74.7168 167.398 74.8177 167.6 75.0195C167.808 75.2214 167.912 75.4818 167.912 75.8008V82.8418ZM166.555 82.7246V75.918H163.215V82.7246H166.555ZM175.275 90H173.996V89.7363C173.482 89.8079 172.967 89.8763 172.453 89.9414C171.815 90.0195 171.304 90.0586 170.92 90.0586C170.21 90.0586 169.855 89.707 169.855 89.0039V85.5371C169.855 84.8079 170.223 84.4434 170.959 84.4434H174.016V81.582H171.223V83.2031H169.963V81.6016C169.963 80.8659 170.327 80.498 171.057 80.498H174.182C174.911 80.498 175.275 80.8659 175.275 81.6016V90ZM174.016 88.8184V85.459H171.115V88.877L174.016 88.8184ZM182.805 92.5C182.805 93.2357 182.437 93.6035 181.701 93.6035H178.615C177.867 93.6035 177.492 93.138 177.492 92.207C177.492 92.0964 177.495 91.9303 177.502 91.709C177.515 91.4941 177.521 91.3379 177.521 91.2402H178.801V92.5H181.516V90H179.377C178.798 90 178.316 89.8079 177.932 89.4238C177.548 89.0332 177.355 88.5449 177.355 87.959V82.4023C177.355 81.8424 177.525 81.377 177.863 81.0059C178.202 80.6283 178.648 80.4395 179.201 80.4395C179.351 80.4395 180.122 80.5469 181.516 80.7617V80.498H182.805V92.5ZM181.516 88.8574V81.6797C180.487 81.6146 179.888 81.582 179.719 81.582C179.003 81.582 178.645 81.9466 178.645 82.6758V87.7637C178.645 88.4928 179.003 88.8574 179.719 88.8574H181.516ZM190.256 88.8965C190.256 89.6322 189.891 90 189.162 90H186.037C185.308 90 184.943 89.6322 184.943 88.8965V81.6016C184.943 80.8659 185.308 80.498 186.037 80.498H189.162C189.891 80.498 190.256 80.8659 190.256 81.6016V85.0195L189.816 85.4785H186.203V88.916H188.996V87.1777H190.256V88.8965ZM188.996 84.4434V81.582H186.203V84.4434H188.996ZM197.521 88.8965C197.521 89.6322 197.154 90 196.418 90H193.439C192.704 90 192.336 89.6322 192.336 88.8965V86.7383H193.615V88.877H196.242V86.9824L192.844 84.1992C192.518 83.9388 192.355 83.6003 192.355 83.1836V81.6016C192.355 80.8659 192.723 80.498 193.459 80.498H196.398C197.134 80.498 197.502 80.8659 197.502 81.6016V83.4961H196.242V81.6211H193.615V83.2812L197.043 86.0645C197.362 86.3184 197.521 86.6634 197.521 87.0996V88.8965Z" fill="white"/>
<path d="M42.3594 27.916C42.3594 28.235 42.2552 28.4954 42.0469 28.6973C41.8385 28.8991 41.5749 29 41.2559 29H37.3203C37.0013 29 36.7409 28.8991 36.5391 28.6973C36.3372 28.4954 36.2363 28.235 36.2363 27.916V14.8008C36.2363 14.4818 36.3372 14.2214 36.5391 14.0195C36.7409 13.8177 37.0013 13.7168 37.3203 13.7168H41.2559C41.5749 13.7168 41.8385 13.8177 42.0469 14.0195C42.2552 14.2214 42.3594 14.4818 42.3594 14.8008V18.3555H40.9922V14.918H37.5938V27.7988H40.9922V24.0391H42.3594V27.916ZM45.9336 29H44.6543V13.7168H45.9336V29ZM49.5273 17.418H48.209V15.7773H49.5273V17.418ZM49.5078 29H48.2285V19.498H49.5078V29ZM57.0371 27.8965C57.0371 28.6322 56.6725 29 55.9434 29H52.8184C52.0892 29 51.7246 28.6322 51.7246 27.8965V20.6016C51.7246 19.8659 52.0892 19.498 52.8184 19.498H55.9434C56.6725 19.498 57.0371 19.8659 57.0371 20.6016V24.0195L56.5977 24.4785H52.9844V27.916H55.7773V26.1777H57.0371V27.8965ZM55.7773 23.4434V20.582H52.9844V23.4434H55.7773ZM64.6445 29H63.3457V20.6602L60.4844 20.7383V29H59.1855V19.498H60.4844V19.7617C60.9922 19.6966 61.5033 19.6283 62.0176 19.5566C62.6426 19.4785 63.1569 19.4395 63.5605 19.4395C64.2832 19.4395 64.6445 19.7943 64.6445 20.5039V29ZM70.1621 29H68.3164C67.5872 29 67.2227 28.6322 67.2227 27.8965V20.6406H66.0801V19.498H67.2227V16.5391H68.502V19.498H70.1621V20.6406H68.502V27.8574H70.1621V29ZM75.7188 23.7754H71.6953V22.5645H75.7188V23.7754ZM82.8379 27.8965C82.8379 28.6322 82.4701 29 81.7344 29H78.7559C78.0202 29 77.6523 28.6322 77.6523 27.8965V25.7383H78.9316V27.877H81.5586V25.9824L78.1602 23.1992C77.8346 22.9388 77.6719 22.6003 77.6719 22.1836V20.6016C77.6719 19.8659 78.0397 19.498 78.7754 19.498H81.7148C82.4505 19.498 82.8184 19.8659 82.8184 20.6016V22.4961H81.5586V20.6211H78.9316V22.2812L82.3594 25.0645C82.6784 25.3184 82.8379 25.6634 82.8379 26.0996V27.8965ZM86.2852 17.418H84.9668V15.7773H86.2852V17.418ZM86.2656 29H84.9863V19.498H86.2656V29ZM93.8828 29H92.5938V28.7363C91.2005 28.9512 90.429 29.0586 90.2793 29.0586C89.7259 29.0586 89.2799 28.873 88.9414 28.502C88.6029 28.1243 88.4336 27.6556 88.4336 27.0957V21.5391C88.4336 20.9531 88.6257 20.4681 89.0098 20.084C89.3939 19.6934 89.8757 19.498 90.4551 19.498H92.5938V13.7168H93.8828V29ZM92.5938 27.8184V20.6406H90.7969C90.0807 20.6406 89.7227 21.0085 89.7227 21.7441V26.8223C89.7227 27.5514 90.0807 27.916 90.7969 27.916C90.9661 27.916 91.5651 27.8835 92.5938 27.8184ZM101.334 27.8965C101.334 28.6322 100.969 29 100.24 29H97.1152C96.3861 29 96.0215 28.6322 96.0215 27.8965V20.6016C96.0215 19.8659 96.3861 19.498 97.1152 19.498H100.24C100.969 19.498 101.334 19.8659 101.334 20.6016V24.0195L100.895 24.4785H97.2812V27.916H100.074V26.1777H101.334V27.8965ZM100.074 23.4434V20.582H97.2812V23.4434H100.074ZM114.068 29H112.643L109.801 20.8164L109.986 20.543H112.408V14.918H108.922V29H107.564V13.7168H112.682C113.001 13.7168 113.261 13.8177 113.463 14.0195C113.665 14.2214 113.766 14.4818 113.766 14.8008V20.6016C113.766 21.3372 113.271 21.7051 112.281 21.7051C112.184 21.7051 112.04 21.7018 111.852 21.6953C111.663 21.6823 111.526 21.6758 111.441 21.6758C112.32 24.1107 113.196 26.5521 114.068 29ZM121.314 29H120.035V28.7363C119.521 28.8079 119.007 28.8763 118.492 28.9414C117.854 29.0195 117.343 29.0586 116.959 29.0586C116.249 29.0586 115.895 28.707 115.895 28.0039V24.5371C115.895 23.8079 116.262 23.4434 116.998 23.4434H120.055V20.582H117.262V22.2031H116.002V20.6016C116.002 19.8659 116.367 19.498 117.096 19.498H120.221C120.95 19.498 121.314 19.8659 121.314 20.6016V29ZM120.055 27.8184V24.459H117.154V27.877L120.055 27.8184ZM128.902 29H127.604V20.6602L124.742 20.7383V29H123.443V19.498H124.742V19.7617C125.25 19.6966 125.761 19.6283 126.275 19.5566C126.9 19.4785 127.415 19.4395 127.818 19.4395C128.541 19.4395 128.902 19.7943 128.902 20.5039V29ZM136.402 29H135.113V28.7363C133.72 28.9512 132.949 29.0586 132.799 29.0586C132.245 29.0586 131.799 28.873 131.461 28.502C131.122 28.1243 130.953 27.6556 130.953 27.0957V21.5391C130.953 20.9531 131.145 20.4681 131.529 20.084C131.913 19.6934 132.395 19.498 132.975 19.498H135.113V13.7168H136.402V29ZM135.113 27.8184V20.6406H133.316C132.6 20.6406 132.242 21.0085 132.242 21.7441V26.8223C132.242 27.5514 132.6 27.916 133.316 27.916C133.486 27.916 134.085 27.8835 135.113 27.8184ZM144 27.8965C144 28.6322 143.632 29 142.896 29H139.635C138.906 29 138.541 28.6322 138.541 27.8965V20.6016C138.541 19.8659 138.906 19.498 139.635 19.498H142.896C143.632 19.498 144 19.8659 144 20.6016V27.8965ZM142.701 27.8574V20.6406H139.84V27.8574H142.701ZM155.67 29H154.371V20.6602L151.539 20.7383V29H150.25V20.6602L147.418 20.7383V29H146.119V19.498H147.418V19.7617C147.926 19.6966 148.434 19.6283 148.941 19.5566C149.56 19.4785 150.071 19.4395 150.475 19.4395C150.872 19.4395 151.165 19.5599 151.354 19.8008C151.9 19.7292 152.444 19.6543 152.984 19.5762C153.694 19.485 154.231 19.4395 154.596 19.4395C155.312 19.4395 155.67 19.7943 155.67 20.5039V29ZM159.156 17.418H157.838V15.7773H159.156V17.418ZM159.137 29H157.857V19.498H159.137V29ZM165.904 29H160.904V28.4043L164.371 20.6602H161.266V19.498H165.904V20.1035L162.428 27.8379H165.904V29ZM173.072 27.8965C173.072 28.6322 172.708 29 171.979 29H168.854C168.124 29 167.76 28.6322 167.76 27.8965V20.6016C167.76 19.8659 168.124 19.498 168.854 19.498H171.979C172.708 19.498 173.072 19.8659 173.072 20.6016V24.0195L172.633 24.4785H169.02V27.916H171.812V26.1777H173.072V27.8965ZM171.812 23.4434V20.582H169.02V23.4434H171.812ZM180.621 29H179.332V28.7363C177.939 28.9512 177.167 29.0586 177.018 29.0586C176.464 29.0586 176.018 28.873 175.68 28.502C175.341 28.1243 175.172 27.6556 175.172 27.0957V21.5391C175.172 20.9531 175.364 20.4681 175.748 20.084C176.132 19.6934 176.614 19.498 177.193 19.498H179.332V13.7168H180.621V29ZM179.332 27.8184V20.6406H177.535C176.819 20.6406 176.461 21.0085 176.461 21.7441V26.8223C176.461 27.5514 176.819 27.916 177.535 27.916C177.704 27.916 178.303 27.8835 179.332 27.8184ZM194.4 29H193.121V19.3223C193.121 19.1855 193.167 18.7852 193.258 18.1211L190.758 27.5645H190.484L187.984 18.1211C188.076 18.7917 188.121 19.1921 188.121 19.3223V29H186.842V13.7168H188.102L190.582 23.6582C190.595 23.7103 190.608 23.8568 190.621 24.0977C190.621 24 190.634 23.8535 190.66 23.6582L193.141 13.7168H194.4V29ZM201.998 27.8965C201.998 28.6322 201.633 29 200.904 29H197.779C197.05 29 196.686 28.6322 196.686 27.8965V20.6016C196.686 19.8659 197.05 19.498 197.779 19.498H200.904C201.633 19.498 201.998 19.8659 201.998 20.6016V24.0195L201.559 24.4785H197.945V27.916H200.738V26.1777H201.998V27.8965ZM200.738 23.4434V20.582H197.945V23.4434H200.738ZM209.547 29H208.258V28.7363C206.865 28.9512 206.093 29.0586 205.943 29.0586C205.39 29.0586 204.944 28.873 204.605 28.502C204.267 28.1243 204.098 27.6556 204.098 27.0957V21.5391C204.098 20.9531 204.29 20.4681 204.674 20.084C205.058 19.6934 205.54 19.498 206.119 19.498H208.258V13.7168H209.547V29ZM208.258 27.8184V20.6406H206.461C205.745 20.6406 205.387 21.0085 205.387 21.7441V26.8223C205.387 27.5514 205.745 27.916 206.461 27.916C206.63 27.916 207.229 27.8835 208.258 27.8184ZM213.062 17.418H211.744V15.7773H213.062V17.418ZM213.043 29H211.764V19.498H213.043V29ZM220.631 29H219.352V28.7363C218.837 28.8079 218.323 28.8763 217.809 28.9414C217.171 29.0195 216.66 29.0586 216.275 29.0586C215.566 29.0586 215.211 28.707 215.211 28.0039V24.5371C215.211 23.8079 215.579 23.4434 216.314 23.4434H219.371V20.582H216.578V22.2031H215.318V20.6016C215.318 19.8659 215.683 19.498 216.412 19.498H219.537C220.266 19.498 220.631 19.8659 220.631 20.6016V29ZM219.371 27.8184V24.459H216.471V27.877L219.371 27.8184Z" fill="white"/>
<path d="M21.7285 182H20.7104V176.492H17.9492V182H16.9312V170.538H17.9492V175.577H20.7104V170.538H21.7285V182ZM27.5146 171.438H25.7422V182H24.7241V171.438H22.937V170.538H27.5146V171.438ZM34.3774 182H33.418V174.742C33.418 174.639 33.4521 174.339 33.5205 173.841L31.6455 180.923H31.4404L29.5654 173.841C29.6338 174.344 29.668 174.644 29.668 174.742V182H28.7085V170.538H29.6533L31.5137 177.994C31.5234 178.033 31.5332 178.143 31.543 178.323C31.543 178.25 31.5527 178.14 31.5723 177.994L33.4326 170.538H34.3774V182ZM39.8706 182H36.2085V170.538H37.2266V181.099H39.8706V182ZM48.7476 176.631C48.7476 176.871 48.6694 177.068 48.5132 177.225C48.3618 177.376 48.1665 177.452 47.9272 177.452H45.2246V182H44.2065V170.538H47.9272C48.1665 170.538 48.3618 170.613 48.5132 170.765C48.6694 170.916 48.7476 171.111 48.7476 171.351V176.631ZM47.7295 176.543V171.438H45.2246V176.543H47.7295ZM53.9697 177.217H53.0103V175.745L51.2158 175.804V182H50.2417V174.874H51.2158V175.071C51.5381 175.022 51.8628 174.971 52.1899 174.917C52.5806 174.859 52.9053 174.83 53.1641 174.83C53.7012 174.83 53.9697 175.096 53.9697 175.628V177.217ZM59.1919 181.172C59.1919 181.724 58.9185 182 58.3716 182H56.0278C55.481 182 55.2075 181.724 55.2075 181.172V175.701C55.2075 175.149 55.481 174.874 56.0278 174.874H58.3716C58.9185 174.874 59.1919 175.149 59.1919 175.701V178.265L58.8623 178.609H56.1523V181.187H58.2471V179.883H59.1919V181.172ZM58.2471 177.833V175.687H56.1523V177.833H58.2471ZM64.8975 180.469C64.8975 180.909 64.7534 181.275 64.4653 181.568C64.1772 181.856 63.8159 182 63.3813 182H60.8032V170.538H61.7773V175.071C62.1631 175.022 62.5488 174.974 62.9346 174.925C63.4229 174.861 63.8062 174.83 64.0845 174.83C64.6265 174.83 64.8975 175.096 64.8975 175.628V180.469ZM63.9233 180.323V175.745L61.7773 175.804V181.143H63.125C63.6572 181.143 63.9233 180.87 63.9233 180.323ZM70.5664 182H69.6069V181.802C69.2163 181.856 68.8281 181.907 68.4424 181.956C67.9736 182.015 67.5854 182.044 67.2778 182.044C66.7505 182.044 66.4868 181.78 66.4868 181.253V174.874H67.4463V181.128L69.6069 181.07V174.874H70.5664V182ZM73.1885 173.313H72.1997V172.083H73.1885V173.313ZM73.1738 182H72.2144V174.874H73.1738V182ZM75.8545 182H74.895V170.538H75.8545V182ZM80.0806 182H78.6963C78.1494 182 77.876 181.724 77.876 181.172V175.73H77.019V174.874H77.876V172.654H78.8354V174.874H80.0806V175.73H78.8354V181.143H80.0806V182ZM90.6421 174.874L89.1699 182.015H88.2983L87.251 176.602L86.2036 182.015H85.3467L83.8745 174.874H84.79L85.7935 180.367L86.8335 174.874H87.6831L88.7231 180.367L89.7266 174.874H90.6421ZM92.876 173.313H91.8872V172.083H92.876V173.313ZM92.8613 182H91.9019V174.874H92.8613V182ZM97.0874 182H95.7031C95.1562 182 94.8828 181.724 94.8828 181.172V175.73H94.0259V174.874H94.8828V172.654H95.8423V174.874H97.0874V175.73H95.8423V181.143H97.0874V182ZM102.427 182H101.453V175.745L99.3066 175.804V182H98.3325V170.538H99.3066V175.071C99.6924 175.022 100.078 174.974 100.464 174.925C100.952 174.861 101.335 174.83 101.614 174.83C102.156 174.83 102.427 175.096 102.427 175.628V182ZM112.732 182H111.772V174.742C111.772 174.639 111.807 174.339 111.875 173.841L110 180.923H109.795L107.92 173.841C107.988 174.344 108.022 174.644 108.022 174.742V182H107.063V170.538H108.008L109.868 177.994C109.878 178.033 109.888 178.143 109.897 178.323C109.897 178.25 109.907 178.14 109.927 177.994L111.787 170.538H112.732V182ZM118.43 181.172C118.43 181.724 118.157 182 117.61 182H115.266C114.719 182 114.446 181.724 114.446 181.172V175.701C114.446 175.149 114.719 174.874 115.266 174.874H117.61C118.157 174.874 118.43 175.149 118.43 175.701V178.265L118.101 178.609H115.391V181.187H117.485V179.883H118.43V181.172ZM117.485 177.833V175.687H115.391V177.833H117.485ZM124.092 182H123.125V181.802C122.08 181.963 121.501 182.044 121.389 182.044C120.974 182.044 120.64 181.905 120.386 181.626C120.132 181.343 120.005 180.992 120.005 180.572V176.404C120.005 175.965 120.149 175.601 120.437 175.313C120.725 175.02 121.086 174.874 121.521 174.874H123.125V170.538H124.092V182ZM123.125 181.114V175.73H121.777C121.24 175.73 120.972 176.006 120.972 176.558V180.367C120.972 180.914 121.24 181.187 121.777 181.187C121.904 181.187 122.354 181.163 123.125 181.114ZM126.729 173.313H125.74V172.083H126.729V173.313ZM126.714 182H125.754V174.874H126.714V182ZM132.405 182H131.445V181.802C131.06 181.856 130.674 181.907 130.288 181.956C129.81 182.015 129.426 182.044 129.138 182.044C128.606 182.044 128.34 181.78 128.34 181.253V178.653C128.34 178.106 128.616 177.833 129.167 177.833H131.46V175.687H129.365V176.902H128.42V175.701C128.42 175.149 128.694 174.874 129.241 174.874H131.584C132.131 174.874 132.405 175.149 132.405 175.701V182ZM131.46 181.114V178.594H129.285V181.158L131.46 181.114ZM141.78 177.393H139.67V179.466H138.77V177.393H136.66V176.543H138.77V174.471H139.67V176.543H141.78V177.393ZM147.222 182H146.204V170.538H147.222V182ZM153.601 181.187C153.601 181.426 153.525 181.622 153.374 181.773C153.228 181.924 153.035 182 152.795 182H149.91C149.67 182 149.473 181.924 149.316 181.773C149.165 181.622 149.089 181.426 149.089 181.187V178.279H150.107V181.099H152.583V178.367L149.419 174.544C149.199 174.28 149.089 173.99 149.089 173.672V171.351C149.089 171.111 149.165 170.916 149.316 170.765C149.473 170.613 149.67 170.538 149.91 170.538H152.795C153.035 170.538 153.228 170.613 153.374 170.765C153.525 170.916 153.601 171.111 153.601 171.351V174.017H152.583V171.438H150.107V173.855L153.286 177.679C153.496 177.933 153.601 178.218 153.601 178.536V181.187ZM160.281 182H159.211L157.08 175.862L157.219 175.657H159.036V171.438H156.421V182H155.403V170.538H159.241C159.48 170.538 159.675 170.613 159.827 170.765C159.978 170.916 160.054 171.111 160.054 171.351V175.701C160.054 176.253 159.683 176.529 158.94 176.529C158.867 176.529 158.76 176.526 158.618 176.521C158.477 176.512 158.374 176.507 158.311 176.507C158.97 178.333 159.626 180.164 160.281 182ZM169.626 182H168.557L166.426 175.862L166.565 175.657H168.381V171.438H165.767V182H164.749V170.538H168.586C168.826 170.538 169.021 170.613 169.172 170.765C169.324 170.916 169.399 171.111 169.399 171.351V175.701C169.399 176.253 169.028 176.529 168.286 176.529C168.213 176.529 168.105 176.526 167.964 176.521C167.822 176.512 167.72 176.507 167.656 176.507C168.315 178.333 168.972 180.164 169.626 182ZM175.061 182H174.102V181.802C173.716 181.856 173.33 181.907 172.944 181.956C172.466 182.015 172.083 182.044 171.794 182.044C171.262 182.044 170.996 181.78 170.996 181.253V178.653C170.996 178.106 171.272 177.833 171.824 177.833H174.116V175.687H172.021V176.902H171.077V175.701C171.077 175.149 171.35 174.874 171.897 174.874H174.241C174.788 174.874 175.061 175.149 175.061 175.701V182ZM174.116 181.114V178.594H171.941V181.158L174.116 181.114ZM180.752 182H179.778V175.745L177.632 175.804V182H176.658V174.874H177.632V175.071C178.013 175.022 178.396 174.971 178.782 174.917C179.25 174.859 179.636 174.83 179.939 174.83C180.481 174.83 180.752 175.096 180.752 175.628V182ZM186.377 182H185.41V181.802C184.365 181.963 183.787 182.044 183.674 182.044C183.259 182.044 182.925 181.905 182.671 181.626C182.417 181.343 182.29 180.992 182.29 180.572V176.404C182.29 175.965 182.434 175.601 182.722 175.313C183.01 175.02 183.372 174.874 183.806 174.874H185.41V170.538H186.377V182ZM185.41 181.114V175.73H184.062C183.525 175.73 183.257 176.006 183.257 176.558V180.367C183.257 180.914 183.525 181.187 184.062 181.187C184.189 181.187 184.639 181.163 185.41 181.114ZM192.075 181.172C192.075 181.724 191.799 182 191.248 182H188.801C188.254 182 187.981 181.724 187.981 181.172V175.701C187.981 175.149 188.254 174.874 188.801 174.874H191.248C191.799 174.874 192.075 175.149 192.075 175.701V181.172ZM191.101 181.143V175.73H188.955V181.143H191.101ZM200.828 182H199.854V175.745L197.729 175.804V182H196.763V175.745L194.639 175.804V182H193.665V174.874H194.639V175.071C195.02 175.022 195.4 174.971 195.781 174.917C196.245 174.859 196.628 174.83 196.931 174.83C197.229 174.83 197.449 174.92 197.59 175.101C198 175.047 198.408 174.991 198.813 174.932C199.346 174.864 199.749 174.83 200.022 174.83C200.559 174.83 200.828 175.096 200.828 175.628V182ZM203.442 173.313H202.454V172.083H203.442V173.313ZM203.428 182H202.468V174.874H203.428V182ZM208.503 182H204.753V181.553L207.354 175.745H205.024V174.874H208.503V175.328L205.896 181.128H208.503V182ZM213.923 182H212.964V181.802C212.578 181.856 212.192 181.907 211.807 181.956C211.328 182.015 210.945 182.044 210.657 182.044C210.125 182.044 209.858 181.78 209.858 181.253V178.653C209.858 178.106 210.134 177.833 210.686 177.833H212.979V175.687H210.884V176.902H209.939V175.701C209.939 175.149 210.212 174.874 210.759 174.874H213.103C213.65 174.874 213.923 175.149 213.923 175.701V182ZM212.979 181.114V178.594H210.803V181.158L212.979 181.114ZM218.083 182H216.699C216.152 182 215.879 181.724 215.879 181.172V175.73H215.022V174.874H215.879V172.654H216.838V174.874H218.083V175.73H216.838V181.143H218.083V182ZM220.361 173.313H219.373V172.083H220.361V173.313ZM220.347 182H219.387V174.874H220.347V182ZM226.104 181.172C226.104 181.724 225.828 182 225.276 182H222.83C222.283 182 222.009 181.724 222.009 181.172V175.701C222.009 175.149 222.283 174.874 222.83 174.874H225.276C225.828 174.874 226.104 175.149 226.104 175.701V181.172ZM225.129 181.143V175.73H222.983V181.143H225.129ZM231.787 182H230.813V175.745L228.667 175.804V182H227.693V174.874H228.667V175.071C229.048 175.022 229.431 174.971 229.817 174.917C230.286 174.859 230.671 174.83 230.974 174.83C231.516 174.83 231.787 175.096 231.787 175.628V182Z" fill="#FF0004"/>
<path d="M32.168 48.6035L27.3193 60H26.3452V59.9414L31.1938 48.5376H32.168V48.6035ZM37.3535 61.875C37.3535 62.4268 37.0776 62.7026 36.5259 62.7026H34.2114C33.6499 62.7026 33.3691 62.3535 33.3691 61.6553C33.3691 61.5723 33.3716 61.4478 33.3765 61.2817C33.3862 61.1206 33.3911 61.0034 33.3911 60.9302H34.3506V61.875H36.3867V60H34.7827C34.3481 60 33.9868 59.856 33.6987 59.5679C33.4106 59.2749 33.2666 58.9087 33.2666 58.4692V54.3018C33.2666 53.8818 33.3936 53.5327 33.6475 53.2544C33.9014 52.9712 34.2358 52.8296 34.6509 52.8296C34.7632 52.8296 35.3418 52.9102 36.3867 53.0713V52.8735H37.3535V61.875ZM36.3867 59.1431V53.7598C35.6152 53.7109 35.166 53.6865 35.0391 53.6865C34.502 53.6865 34.2334 53.96 34.2334 54.5068V58.3228C34.2334 58.8696 34.502 59.1431 35.0391 59.1431H36.3867ZM42.9858 60H42.0264V59.8022C41.6406 59.856 41.2549 59.9072 40.8691 59.9561C40.3906 60.0146 40.0073 60.0439 39.7192 60.0439C39.187 60.0439 38.9209 59.7803 38.9209 59.2529V56.6528C38.9209 56.106 39.1968 55.8325 39.7485 55.8325H42.041V53.6865H39.9463V54.9023H39.0015V53.7012C39.0015 53.1494 39.2749 52.8735 39.8218 52.8735H42.1655C42.7124 52.8735 42.9858 53.1494 42.9858 53.7012V60ZM42.041 59.1138V56.5942H39.8657V59.1577L42.041 59.1138ZM45.6006 60H44.6411V48.5376H45.6006V60ZM48.2812 60H47.3218V48.5376H48.2812V60ZM53.9282 59.1724C53.9282 59.7241 53.6548 60 53.1079 60H50.7642C50.2173 60 49.9438 59.7241 49.9438 59.1724V53.7012C49.9438 53.1494 50.2173 52.8735 50.7642 52.8735H53.1079C53.6548 52.8735 53.9282 53.1494 53.9282 53.7012V56.2646L53.5986 56.6089H50.8887V59.187H52.9834V57.8833H53.9282V59.1724ZM52.9834 55.8325V53.6865H50.8887V55.8325H52.9834ZM59.2676 55.2173H58.3081V53.7451L56.5137 53.8037V60H55.5396V52.8735H56.5137V53.0713C56.8359 53.0225 57.1606 52.9712 57.4878 52.9175C57.8784 52.8589 58.2031 52.8296 58.4619 52.8296C58.999 52.8296 59.2676 53.0957 59.2676 53.6279V55.2173ZM64.519 52.8735L62.8052 59.9414L62.0947 62.7026H61.1353L61.853 59.9414L60.0952 52.8735H61.0986L62.3145 58.4839L63.5449 52.8735H64.519Z" fill="white"/>
<line x1="0.00759313" y1="100" x2="249.008" y2="98" stroke="#033E65" stroke-width="2" stroke-dasharray="4 4"/>
<rect x="17.5156" y="45.5" width="56" height="19" rx="9.5" stroke="#033E65"/>
<path d="M114.168 48.6035L109.319 60H108.345V59.9414L113.194 48.5376H114.168V48.6035ZM119.397 58.4692C119.397 58.9087 119.253 59.2749 118.965 59.5679C118.677 59.856 118.316 60 117.881 60H116.277V62.7026H115.303V52.8735H116.277V53.0713C116.663 53.0225 117.049 52.9736 117.435 52.9248C117.923 52.8613 118.306 52.8296 118.584 52.8296C119.126 52.8296 119.397 53.0957 119.397 53.6279V58.4692ZM118.423 58.3228V53.7451L116.277 53.8037V59.1431H117.625C118.157 59.1431 118.423 58.8696 118.423 58.3228ZM124.686 55.2173H123.726V53.7451L121.932 53.8037V60H120.958V52.8735H121.932V53.0713C122.254 53.0225 122.579 52.9712 122.906 52.9175C123.296 52.8589 123.621 52.8296 123.88 52.8296C124.417 52.8296 124.686 53.0957 124.686 53.6279V55.2173ZM129.908 59.1724C129.908 59.7241 129.634 60 129.087 60H126.744C126.197 60 125.923 59.7241 125.923 59.1724V53.7012C125.923 53.1494 126.197 52.8735 126.744 52.8735H129.087C129.634 52.8735 129.908 53.1494 129.908 53.7012V56.2646L129.578 56.6089H126.868V59.187H128.963V57.8833H129.908V59.1724ZM128.963 55.8325V53.6865H126.868V55.8325H128.963ZM135.357 59.1724C135.357 59.7241 135.081 60 134.529 60H132.295C131.744 60 131.468 59.7241 131.468 59.1724V57.5537H132.427V59.1577H134.397V57.7368L131.849 55.6494C131.604 55.4541 131.482 55.2002 131.482 54.8877V53.7012C131.482 53.1494 131.758 52.8735 132.31 52.8735H134.515C135.066 52.8735 135.342 53.1494 135.342 53.7012V55.1221H134.397V53.7158H132.427V54.9609L134.998 57.0483C135.237 57.2388 135.357 57.4976 135.357 57.8247V59.1724ZM140.748 59.1724C140.748 59.7241 140.472 60 139.92 60H137.686C137.134 60 136.858 59.7241 136.858 59.1724V57.5537H137.818V59.1577H139.788V57.7368L137.239 55.6494C136.995 55.4541 136.873 55.2002 136.873 54.8877V53.7012C136.873 53.1494 137.149 52.8735 137.701 52.8735H139.905C140.457 52.8735 140.733 53.1494 140.733 53.7012V55.1221H139.788V53.7158H137.818V54.9609L140.389 57.0483C140.628 57.2388 140.748 57.4976 140.748 57.8247V59.1724Z" fill="white"/>
<rect x="96.5156" y="45.5" width="56" height="19" rx="9.5" stroke="#033E65"/>
<path d="M194.168 48.6035L189.319 60H188.345V59.9414L193.194 48.5376H194.168V48.6035ZM199.332 60H198.372V59.8022C197.986 59.856 197.601 59.9072 197.215 59.9561C196.736 60.0146 196.353 60.0439 196.065 60.0439C195.533 60.0439 195.267 59.7803 195.267 59.2529V56.6528C195.267 56.106 195.542 55.8325 196.094 55.8325H198.387V53.6865H196.292V54.9023H195.347V53.7012C195.347 53.1494 195.621 52.8735 196.167 52.8735H198.511C199.058 52.8735 199.332 53.1494 199.332 53.7012V60ZM198.387 59.1138V56.5942H196.211V59.1577L198.387 59.1138ZM205.022 58.4692C205.022 58.9087 204.878 59.2749 204.59 59.5679C204.302 59.856 203.941 60 203.506 60H200.928V48.5376H201.902V53.0713C202.288 53.0225 202.674 52.9736 203.06 52.9248C203.548 52.8613 203.931 52.8296 204.209 52.8296C204.751 52.8296 205.022 53.0957 205.022 53.6279V58.4692ZM204.048 58.3228V53.7451L201.902 53.8037V59.1431H203.25C203.782 59.1431 204.048 58.8696 204.048 58.3228ZM210.706 59.1724C210.706 59.7241 210.43 60 209.878 60H207.432C206.885 60 206.612 59.7241 206.612 59.1724V53.7012C206.612 53.1494 206.885 52.8735 207.432 52.8735H209.878C210.43 52.8735 210.706 53.1494 210.706 53.7012V59.1724ZM209.732 59.1431V53.7305H207.586V59.1431H209.732ZM216.375 60H215.416V59.8022C215.025 59.856 214.637 59.9072 214.251 59.9561C213.782 60.0146 213.394 60.0439 213.086 60.0439C212.559 60.0439 212.295 59.7803 212.295 59.2529V52.8735H213.255V59.1284L215.416 59.0698V52.8735H216.375V60ZM220.528 60H219.144C218.597 60 218.323 59.7241 218.323 59.1724V53.7305H217.466V52.8735H218.323V50.6543H219.283V52.8735H220.528V53.7305H219.283V59.1431H220.528V60Z" fill="white"/>
<rect x="175.516" y="45.5" width="56" height="19" rx="9.5" stroke="#033E65"/>
<path d="M21.9082 148.469C21.9082 148.909 21.7642 149.275 21.4761 149.568C21.188 149.856 20.8267 150 20.3921 150H17.814V138.538H18.7881V143.071C19.1738 143.022 19.5596 142.974 19.9453 142.925C20.4336 142.861 20.8169 142.83 21.0952 142.83C21.6372 142.83 21.9082 143.096 21.9082 143.628V148.469ZM20.9341 148.323V143.745L18.7881 143.804V149.143H20.1357C20.668 149.143 20.9341 148.87 20.9341 148.323ZM27.5918 149.172C27.5918 149.724 27.3159 150 26.7642 150H24.3179C23.771 150 23.4976 149.724 23.4976 149.172V143.701C23.4976 143.149 23.771 142.874 24.3179 142.874H26.7642C27.3159 142.874 27.5918 143.149 27.5918 143.701V149.172ZM26.6177 149.143V143.73H24.4717V149.143H26.6177ZM31.7446 150H30.3604C29.8135 150 29.54 149.724 29.54 149.172V143.73H28.6831V142.874H29.54V140.654H30.4995V142.874H31.7446V143.73H30.4995V149.143H31.7446V150ZM38.3438 138.604L33.4951 150H32.521V149.941L37.3696 138.538H38.3438V138.604ZM43.5293 151.875C43.5293 152.427 43.2534 152.703 42.7017 152.703H40.3872C39.8257 152.703 39.5449 152.354 39.5449 151.655C39.5449 151.572 39.5474 151.448 39.5522 151.282C39.562 151.121 39.5669 151.003 39.5669 150.93H40.5264V151.875H42.5625V150H40.9585C40.5239 150 40.1626 149.856 39.8745 149.568C39.5864 149.275 39.4424 148.909 39.4424 148.469V144.302C39.4424 143.882 39.5693 143.533 39.8232 143.254C40.0771 142.971 40.4116 142.83 40.8267 142.83C40.939 142.83 41.5176 142.91 42.5625 143.071V142.874H43.5293V151.875ZM42.5625 149.143V143.76C41.791 143.711 41.3418 143.687 41.2148 143.687C40.6777 143.687 40.4092 143.96 40.4092 144.507V148.323C40.4092 148.87 40.6777 149.143 41.2148 149.143H42.5625ZM49.1616 150H48.2021V149.802C47.8164 149.856 47.4307 149.907 47.0449 149.956C46.5664 150.015 46.1831 150.044 45.895 150.044C45.3628 150.044 45.0967 149.78 45.0967 149.253V146.653C45.0967 146.106 45.3726 145.833 45.9243 145.833H48.2168V143.687H46.1221V144.902H45.1772V143.701C45.1772 143.149 45.4507 142.874 45.9976 142.874H48.3413C48.8882 142.874 49.1616 143.149 49.1616 143.701V150ZM48.2168 149.114V146.594H46.0415V149.158L48.2168 149.114ZM51.7764 150H50.8169V138.538H51.7764V150ZM54.457 150H53.4976V138.538H54.457V150ZM60.104 149.172C60.104 149.724 59.8306 150 59.2837 150H56.9399C56.3931 150 56.1196 149.724 56.1196 149.172V143.701C56.1196 143.149 56.3931 142.874 56.9399 142.874H59.2837C59.8306 142.874 60.104 143.149 60.104 143.701V146.265L59.7744 146.609H57.0645V149.187H59.1592V147.883H60.104V149.172ZM59.1592 145.833V143.687H57.0645V145.833H59.1592ZM65.4434 145.217H64.4839V143.745L62.6895 143.804V150H61.7153V142.874H62.6895V143.071C63.0117 143.022 63.3364 142.971 63.6636 142.917C64.0542 142.859 64.3789 142.83 64.6377 142.83C65.1748 142.83 65.4434 143.096 65.4434 143.628V145.217ZM70.6948 142.874L68.981 149.941L68.2705 152.703H67.311L68.0288 149.941L66.271 142.874H67.2744L68.4902 148.484L69.7207 142.874H70.6948Z" fill="white"/>
<rect x="8.51562" y="135.5" width="70" height="19" rx="9.5" stroke="#033E65"/>
<path d="M106.908 148.469C106.908 148.909 106.764 149.275 106.476 149.568C106.188 149.856 105.827 150 105.392 150H102.814V138.538H103.788V143.071C104.174 143.022 104.56 142.974 104.945 142.925C105.434 142.861 105.817 142.83 106.095 142.83C106.637 142.83 106.908 143.096 106.908 143.628V148.469ZM105.934 148.323V143.745L103.788 143.804V149.143H105.136C105.668 149.143 105.934 148.87 105.934 148.323ZM112.592 149.172C112.592 149.724 112.316 150 111.764 150H109.318C108.771 150 108.498 149.724 108.498 149.172V143.701C108.498 143.149 108.771 142.874 109.318 142.874H111.764C112.316 142.874 112.592 143.149 112.592 143.701V149.172ZM111.618 149.143V143.73H109.472V149.143H111.618ZM116.745 150H115.36C114.813 150 114.54 149.724 114.54 149.172V143.73H113.683V142.874H114.54V140.654H115.5V142.874H116.745V143.73H115.5V149.143H116.745V150ZM123.344 138.604L118.495 150H117.521V149.941L122.37 138.538H123.344V138.604ZM128.573 148.469C128.573 148.909 128.429 149.275 128.141 149.568C127.853 149.856 127.492 150 127.057 150H125.453V152.703H124.479V142.874H125.453V143.071C125.839 143.022 126.225 142.974 126.61 142.925C127.099 142.861 127.482 142.83 127.76 142.83C128.302 142.83 128.573 143.096 128.573 143.628V148.469ZM127.599 148.323V143.745L125.453 143.804V149.143H126.801C127.333 149.143 127.599 148.87 127.599 148.323ZM133.861 145.217H132.902V143.745L131.107 143.804V150H130.133V142.874H131.107V143.071C131.43 143.022 131.754 142.971 132.082 142.917C132.472 142.859 132.797 142.83 133.056 142.83C133.593 142.83 133.861 143.096 133.861 143.628V145.217ZM139.083 149.172C139.083 149.724 138.81 150 138.263 150H135.919C135.373 150 135.099 149.724 135.099 149.172V143.701C135.099 143.149 135.373 142.874 135.919 142.874H138.263C138.81 142.874 139.083 143.149 139.083 143.701V146.265L138.754 146.609H136.044V149.187H138.139V147.883H139.083V149.172ZM138.139 145.833V143.687H136.044V145.833H138.139ZM144.533 149.172C144.533 149.724 144.257 150 143.705 150H141.471C140.919 150 140.644 149.724 140.644 149.172V147.554H141.603V149.158H143.573V147.737L141.024 145.649C140.78 145.454 140.658 145.2 140.658 144.888V143.701C140.658 143.149 140.934 142.874 141.486 142.874H143.69C144.242 142.874 144.518 143.149 144.518 143.701V145.122H143.573V143.716H141.603V144.961L144.174 147.048C144.413 147.239 144.533 147.498 144.533 147.825V149.172ZM149.923 149.172C149.923 149.724 149.647 150 149.096 150H146.862C146.31 150 146.034 149.724 146.034 149.172V147.554H146.994V149.158H148.964V147.737L146.415 145.649C146.171 145.454 146.049 145.2 146.049 144.888V143.701C146.049 143.149 146.325 142.874 146.876 142.874H149.081C149.633 142.874 149.909 143.149 149.909 143.701V145.122H148.964V143.716H146.994V144.961L149.564 147.048C149.804 147.239 149.923 147.498 149.923 147.825V149.172Z" fill="white"/>
<rect x="89.5156" y="135.5" width="70" height="19" rx="9.5" stroke="#033E65"/>
<path d="M186.908 148.469C186.908 148.909 186.764 149.275 186.476 149.568C186.188 149.856 185.827 150 185.392 150H182.814V138.538H183.788V143.071C184.174 143.022 184.56 142.974 184.945 142.925C185.434 142.861 185.817 142.83 186.095 142.83C186.637 142.83 186.908 143.096 186.908 143.628V148.469ZM185.934 148.323V143.745L183.788 143.804V149.143H185.136C185.668 149.143 185.934 148.87 185.934 148.323ZM192.592 149.172C192.592 149.724 192.316 150 191.764 150H189.318C188.771 150 188.498 149.724 188.498 149.172V143.701C188.498 143.149 188.771 142.874 189.318 142.874H191.764C192.316 142.874 192.592 143.149 192.592 143.701V149.172ZM191.618 149.143V143.73H189.472V149.143H191.618ZM196.745 150H195.36C194.813 150 194.54 149.724 194.54 149.172V143.73H193.683V142.874H194.54V140.654H195.5V142.874H196.745V143.73H195.5V149.143H196.745V150ZM203.344 138.604L198.495 150H197.521V149.941L202.37 138.538H203.344V138.604ZM208.507 150H207.548V149.802C207.162 149.856 206.776 149.907 206.391 149.956C205.912 150.015 205.529 150.044 205.241 150.044C204.708 150.044 204.442 149.78 204.442 149.253V146.653C204.442 146.106 204.718 145.833 205.27 145.833H207.562V143.687H205.468V144.902H204.523V143.701C204.523 143.149 204.796 142.874 205.343 142.874H207.687C208.234 142.874 208.507 143.149 208.507 143.701V150ZM207.562 149.114V146.594H205.387V149.158L207.562 149.114ZM214.198 148.469C214.198 148.909 214.054 149.275 213.766 149.568C213.478 149.856 213.117 150 212.682 150H210.104V138.538H211.078V143.071C211.464 143.022 211.85 142.974 212.235 142.925C212.724 142.861 213.107 142.83 213.385 142.83C213.927 142.83 214.198 143.096 214.198 143.628V148.469ZM213.224 148.323V143.745L211.078 143.804V149.143H212.426C212.958 149.143 213.224 148.87 213.224 148.323ZM219.882 149.172C219.882 149.724 219.606 150 219.054 150H216.608C216.061 150 215.788 149.724 215.788 149.172V143.701C215.788 143.149 216.061 142.874 216.608 142.874H219.054C219.606 142.874 219.882 143.149 219.882 143.701V149.172ZM218.908 149.143V143.73H216.762V149.143H218.908ZM225.551 150H224.591V149.802C224.201 149.856 223.812 149.907 223.427 149.956C222.958 150.015 222.57 150.044 222.262 150.044C221.735 150.044 221.471 149.78 221.471 149.253V142.874H222.431V149.128L224.591 149.07V142.874H225.551V150ZM229.704 150H228.319C227.772 150 227.499 149.724 227.499 149.172V143.73H226.642V142.874H227.499V140.654H228.458V142.874H229.704V143.73H228.458V149.143H229.704V150Z" fill="white"/>
<rect x="173.516" y="135.5" width="66" height="19" rx="9.5" stroke="#033E65"/>
</svg>
