<svg width="250" height="200" viewBox="0 0 250 200" fill="none" xmlns="http://www.w3.org/2000/svg">
<rect x="1.00781" y="1" width="248" height="198" rx="9" fill="#012035" stroke="#033E65" stroke-width="2"/>
<path d="M21.6094 140.916C21.6094 141.235 21.5085 141.495 21.3066 141.697C21.1048 141.899 20.8444 142 20.5254 142H16.9707C16.6517 142 16.3913 141.899 16.1895 141.697C15.9876 141.495 15.8867 141.235 15.8867 140.916V137.039H17.2441V140.799H20.252V126.717H21.6094V140.916ZM29.0215 140.896C29.0215 141.632 28.6536 142 27.918 142H24.9395C24.2038 142 23.8359 141.632 23.8359 140.896V138.738H25.1152V140.877H27.7422V138.982L24.3438 136.199C24.0182 135.939 23.8555 135.6 23.8555 135.184V133.602C23.8555 132.866 24.2233 132.498 24.959 132.498H27.8984C28.6341 132.498 29.002 132.866 29.002 133.602V135.496H27.7422V133.621H25.1152V135.281L28.543 138.064C28.862 138.318 29.0215 138.663 29.0215 139.1V140.896ZM36.5508 140.896C36.5508 141.632 36.1829 142 35.4473 142H32.1855C31.4564 142 31.0918 141.632 31.0918 140.896V133.602C31.0918 132.866 31.4564 132.498 32.1855 132.498H35.4473C36.1829 132.498 36.5508 132.866 36.5508 133.602V140.896ZM35.252 140.857V133.641H32.3906V140.857H35.252ZM44.1289 142H42.8301V133.66L39.9688 133.738V142H38.6699V132.498H39.9688V132.762C40.4766 132.697 40.9876 132.628 41.502 132.557C42.127 132.479 42.6413 132.439 43.0449 132.439C43.7676 132.439 44.1289 132.794 44.1289 133.504V142ZM50.125 136.775H46.1016V135.564H50.125V136.775ZM57.166 142H52.2832V126.717H53.6406V140.799H57.166V142ZM65.3203 139.236C65.3203 140.044 65.0534 140.708 64.5195 141.229C63.9922 141.743 63.3249 142 62.5176 142H59.0215V126.717H62.5176C63.3314 126.717 64.002 126.977 64.5293 127.498C65.0566 128.012 65.3203 128.673 65.3203 129.48V139.236ZM63.9629 139.1V129.598C63.9629 129.096 63.8034 128.693 63.4844 128.387C63.1719 128.074 62.765 127.918 62.2637 127.918H60.3789V140.799H62.1855C62.7129 140.799 63.1393 140.649 63.4648 140.35C63.7969 140.044 63.9629 139.627 63.9629 139.1Z" fill="white"/>
<path d="M207.904 142H206.547V134.656H202.865V142H201.508V126.717H202.865V133.436H206.547V126.717H207.904V142ZM215.619 127.918H213.256V142H211.898V127.918H209.516V126.717H215.619V127.918ZM224.77 142H223.49V132.322C223.49 132.186 223.536 131.785 223.627 131.121L221.127 140.564H220.854L218.354 131.121C218.445 131.792 218.49 132.192 218.49 132.322V142H217.211V126.717H218.471L220.951 136.658C220.964 136.71 220.977 136.857 220.99 137.098C220.99 137 221.003 136.854 221.029 136.658L223.51 126.717H224.77V142ZM232.094 142H227.211V126.717H228.568V140.799H232.094V142Z" fill="white"/>
<path d="M99.3906 142H98.043L97.5059 138.602H94.4688L93.9316 142H92.623V141.961L95.3477 126.678H96.6855L99.3906 142ZM97.3301 137.4L95.9922 129.119L94.6445 137.4H97.3301ZM107.74 142H106.314L103.473 133.816L103.658 133.543H106.08V127.918H102.594V142H101.236V126.717H106.354C106.673 126.717 106.933 126.818 107.135 127.02C107.337 127.221 107.438 127.482 107.438 127.801V133.602C107.438 134.337 106.943 134.705 105.953 134.705C105.855 134.705 105.712 134.702 105.523 134.695C105.335 134.682 105.198 134.676 105.113 134.676C105.992 137.111 106.868 139.552 107.74 142ZM111.207 142H109.85V126.717H111.207V142ZM119.918 142H118.57L118.033 138.602H114.996L114.459 142H113.15V141.961L115.875 126.678H117.213L119.918 142ZM117.857 137.4L116.52 129.119L115.172 137.4H117.857Z" fill="white"/>
<path d="M153.352 140.916C153.352 141.235 153.247 141.495 153.039 141.697C152.831 141.899 152.567 142 152.248 142H148.312C147.993 142 147.733 141.899 147.531 141.697C147.329 141.495 147.229 141.235 147.229 140.916V127.801C147.229 127.482 147.329 127.221 147.531 127.02C147.733 126.818 147.993 126.717 148.312 126.717H152.248C152.567 126.717 152.831 126.818 153.039 127.02C153.247 127.221 153.352 127.482 153.352 127.801V131.355H151.984V127.918H148.586V140.799H151.984V137.039H153.352V140.916ZM161.682 140.916C161.682 141.235 161.581 141.495 161.379 141.697C161.184 141.899 160.926 142 160.607 142H156.76C156.441 142 156.177 141.899 155.969 141.697C155.767 141.495 155.666 141.235 155.666 140.916V137.039H157.023V140.799H160.324V137.156L156.105 132.059C155.812 131.707 155.666 131.32 155.666 130.896V127.801C155.666 127.482 155.767 127.221 155.969 127.02C156.177 126.818 156.441 126.717 156.76 126.717H160.607C160.926 126.717 161.184 126.818 161.379 127.02C161.581 127.221 161.682 127.482 161.682 127.801V131.355H160.324V127.918H157.023V131.141L161.262 136.238C161.542 136.577 161.682 136.958 161.682 137.381V140.916ZM170.041 140.916C170.041 141.235 169.94 141.495 169.738 141.697C169.543 141.899 169.286 142 168.967 142H165.119C164.8 142 164.536 141.899 164.328 141.697C164.126 141.495 164.025 141.235 164.025 140.916V137.039H165.383V140.799H168.684V137.156L164.465 132.059C164.172 131.707 164.025 131.32 164.025 130.896V127.801C164.025 127.482 164.126 127.221 164.328 127.02C164.536 126.818 164.8 126.717 165.119 126.717H168.967C169.286 126.717 169.543 126.818 169.738 127.02C169.94 127.221 170.041 127.482 170.041 127.801V131.355H168.684V127.918H165.383V131.141L169.621 136.238C169.901 136.577 170.041 136.958 170.041 137.381V140.916Z" fill="white"/>
<path d="M76.7324 70H75.3066L72.4648 61.8164L72.6504 61.543H75.0723V55.918H71.5859V70H70.2285V54.7168H75.3457C75.6647 54.7168 75.9251 54.8177 76.127 55.0195C76.3288 55.2214 76.4297 55.4818 76.4297 55.8008V61.6016C76.4297 62.3372 75.9349 62.7051 74.9453 62.7051C74.8477 62.7051 74.7044 62.7018 74.5156 62.6953C74.3268 62.6823 74.1901 62.6758 74.1055 62.6758C74.9844 65.1107 75.86 67.5521 76.7324 70ZM83.9785 70H82.6992V69.7363C82.1849 69.8079 81.6706 69.8763 81.1562 69.9414C80.5182 70.0195 80.0072 70.0586 79.623 70.0586C78.9134 70.0586 78.5586 69.707 78.5586 69.0039V65.5371C78.5586 64.8079 78.9264 64.4434 79.6621 64.4434H82.7188V61.582H79.9258V63.2031H78.666V61.6016C78.666 60.8659 79.0306 60.498 79.7598 60.498H82.8848C83.6139 60.498 83.9785 60.8659 83.9785 61.6016V70ZM82.7188 68.8184V65.459H79.8184V68.877L82.7188 68.8184ZM91.5664 70H90.2676V61.6602L87.4062 61.7383V70H86.1074V60.498H87.4062V60.7617C87.9141 60.6966 88.4251 60.6283 88.9395 60.5566C89.5645 60.4785 90.0788 60.4395 90.4824 60.4395C91.2051 60.4395 91.5664 60.7943 91.5664 61.5039V70ZM99.0664 70H97.7773V69.7363C96.3841 69.9512 95.6126 70.0586 95.4629 70.0586C94.9095 70.0586 94.4635 69.873 94.125 69.502C93.7865 69.1243 93.6172 68.6556 93.6172 68.0957V62.5391C93.6172 61.9531 93.8092 61.4681 94.1934 61.084C94.5775 60.6934 95.0592 60.498 95.6387 60.498H97.7773V54.7168H99.0664V70ZM97.7773 68.8184V61.6406H95.9805C95.2643 61.6406 94.9062 62.0085 94.9062 62.7441V67.8223C94.9062 68.5514 95.2643 68.916 95.9805 68.916C96.1497 68.916 96.7487 68.8835 97.7773 68.8184ZM106.664 68.8965C106.664 69.6322 106.296 70 105.561 70H102.299C101.57 70 101.205 69.6322 101.205 68.8965V61.6016C101.205 60.8659 101.57 60.498 102.299 60.498H105.561C106.296 60.498 106.664 60.8659 106.664 61.6016V68.8965ZM105.365 68.8574V61.6406H102.504V68.8574H105.365ZM118.334 70H117.035V61.6602L114.203 61.7383V70H112.914V61.6602L110.082 61.7383V70H108.783V60.498H110.082V60.7617C110.59 60.6966 111.098 60.6283 111.605 60.5566C112.224 60.4785 112.735 60.4395 113.139 60.4395C113.536 60.4395 113.829 60.5599 114.018 60.8008C114.564 60.7292 115.108 60.6543 115.648 60.5762C116.358 60.485 116.895 60.4395 117.26 60.4395C117.976 60.4395 118.334 60.7943 118.334 61.5039V70ZM121.82 58.418H120.502V56.7773H121.82V58.418ZM121.801 70H120.521V60.498H121.801V70ZM128.568 70H123.568V69.4043L127.035 61.6602H123.93V60.498H128.568V61.1035L125.092 68.8379H128.568V70ZM135.736 68.8965C135.736 69.6322 135.372 70 134.643 70H131.518C130.788 70 130.424 69.6322 130.424 68.8965V61.6016C130.424 60.8659 130.788 60.498 131.518 60.498H134.643C135.372 60.498 135.736 60.8659 135.736 61.6016V65.0195L135.297 65.4785H131.684V68.916H134.477V67.1777H135.736V68.8965ZM134.477 64.4434V61.582H131.684V64.4434H134.477ZM143.285 70H141.996V69.7363C140.603 69.9512 139.831 70.0586 139.682 70.0586C139.128 70.0586 138.682 69.873 138.344 69.502C138.005 69.1243 137.836 68.6556 137.836 68.0957V62.5391C137.836 61.9531 138.028 61.4681 138.412 61.084C138.796 60.6934 139.278 60.498 139.857 60.498H141.996V54.7168H143.285V70ZM141.996 68.8184V61.6406H140.199C139.483 61.6406 139.125 62.0085 139.125 62.7441V67.8223C139.125 68.5514 139.483 68.916 140.199 68.916C140.368 68.916 140.967 68.8835 141.996 68.8184ZM157.064 70H155.785V60.3223C155.785 60.1855 155.831 59.7852 155.922 59.1211L153.422 68.5645H153.148L150.648 59.1211C150.74 59.7917 150.785 60.1921 150.785 60.3223V70H149.506V54.7168H150.766L153.246 64.6582C153.259 64.7103 153.272 64.8568 153.285 65.0977C153.285 65 153.298 64.8535 153.324 64.6582L155.805 54.7168H157.064V70ZM164.662 68.8965C164.662 69.6322 164.298 70 163.568 70H160.443C159.714 70 159.35 69.6322 159.35 68.8965V61.6016C159.35 60.8659 159.714 60.498 160.443 60.498H163.568C164.298 60.498 164.662 60.8659 164.662 61.6016V65.0195L164.223 65.4785H160.609V68.916H163.402V67.1777H164.662V68.8965ZM163.402 64.4434V61.582H160.609V64.4434H163.402ZM172.211 70H170.922V69.7363C169.529 69.9512 168.757 70.0586 168.607 70.0586C168.054 70.0586 167.608 69.873 167.27 69.502C166.931 69.1243 166.762 68.6556 166.762 68.0957V62.5391C166.762 61.9531 166.954 61.4681 167.338 61.084C167.722 60.6934 168.204 60.498 168.783 60.498H170.922V54.7168H172.211V70ZM170.922 68.8184V61.6406H169.125C168.409 61.6406 168.051 62.0085 168.051 62.7441V67.8223C168.051 68.5514 168.409 68.916 169.125 68.916C169.294 68.916 169.893 68.8835 170.922 68.8184ZM175.727 58.418H174.408V56.7773H175.727V58.418ZM175.707 70H174.428V60.498H175.707V70ZM183.295 70H182.016V69.7363C181.501 69.8079 180.987 69.8763 180.473 69.9414C179.835 70.0195 179.324 70.0586 178.939 70.0586C178.23 70.0586 177.875 69.707 177.875 69.0039V65.5371C177.875 64.8079 178.243 64.4434 178.979 64.4434H182.035V61.582H179.242V63.2031H177.982V61.6016C177.982 60.8659 178.347 60.498 179.076 60.498H182.201C182.93 60.498 183.295 60.8659 183.295 61.6016V70ZM182.035 68.8184V65.459H179.135V68.877L182.035 68.8184Z" fill="white"/>
<path d="M65.8945 25.7754H61.8711V24.5645H65.8945V25.7754ZM78.1406 31H76.793L76.2559 27.6016H73.2188L72.6816 31H71.373V30.9609L74.0977 15.6777H75.4355L78.1406 31ZM76.0801 26.4004L74.7422 18.1191L73.3945 26.4004H76.0801ZM81.1875 31H79.9082V15.7168H81.1875V31ZM91.9004 21.498L89.9375 31.0195H88.7754L87.3789 23.8027L85.9824 31.0195H84.8398L82.877 21.498H84.0977L85.4355 28.8223L86.8223 21.498H87.9551L89.3418 28.8223L90.6797 21.498H91.9004ZM98.873 31H97.5938V30.7363C97.0794 30.8079 96.5651 30.8763 96.0508 30.9414C95.4128 31.0195 94.9017 31.0586 94.5176 31.0586C93.8079 31.0586 93.4531 30.707 93.4531 30.0039V26.5371C93.4531 25.8079 93.821 25.4434 94.5566 25.4434H97.6133V22.582H94.8203V24.2031H93.5605V22.6016C93.5605 21.8659 93.9251 21.498 94.6543 21.498H97.7793C98.5085 21.498 98.873 21.8659 98.873 22.6016V31ZM97.6133 29.8184V26.459H94.7129V29.877L97.6133 29.8184ZM106.354 21.498L104.068 30.9219L103.121 34.6035H101.842L102.799 30.9219L100.455 21.498H101.793L103.414 28.9785L105.055 21.498H106.354ZM113.072 29.8965C113.072 30.6322 112.704 31 111.969 31H108.99C108.255 31 107.887 30.6322 107.887 29.8965V27.7383H109.166V29.877H111.793V27.9824L108.395 25.1992C108.069 24.9388 107.906 24.6003 107.906 24.1836V22.6016C107.906 21.8659 108.274 21.498 109.01 21.498H111.949C112.685 21.498 113.053 21.8659 113.053 22.6016V24.4961H111.793V22.6211H109.166V24.2812L112.594 27.0645C112.913 27.3184 113.072 27.6634 113.072 28.0996V29.8965ZM124.146 16.918H120.582V22.7188H123.863V23.9395H120.582V31H119.225V15.7168H124.146V16.918ZM130.836 24.623H129.557V22.6602L127.164 22.7383V31H125.865V21.498H127.164V21.7617C127.594 21.6966 128.027 21.6283 128.463 21.5566C128.984 21.4785 129.417 21.4395 129.762 21.4395C130.478 21.4395 130.836 21.7943 130.836 22.5039V24.623ZM137.799 29.8965C137.799 30.6322 137.434 31 136.705 31H133.58C132.851 31 132.486 30.6322 132.486 29.8965V22.6016C132.486 21.8659 132.851 21.498 133.58 21.498H136.705C137.434 21.498 137.799 21.8659 137.799 22.6016V26.0195L137.359 26.4785H133.746V29.916H136.539V28.1777H137.799V29.8965ZM136.539 25.4434V22.582H133.746V25.4434H136.539ZM145.064 29.8965C145.064 30.6322 144.697 31 143.961 31H140.982C140.247 31 139.879 30.6322 139.879 29.8965V27.7383H141.158V29.877H143.785V27.9824L140.387 25.1992C140.061 24.9388 139.898 24.6003 139.898 24.1836V22.6016C139.898 21.8659 140.266 21.498 141.002 21.498H143.941C144.677 21.498 145.045 21.8659 145.045 22.6016V24.4961H143.785V22.6211H141.158V24.2812L144.586 27.0645C144.905 27.3184 145.064 27.6634 145.064 28.0996V29.8965ZM152.594 31H151.295V22.6602L148.434 22.7383V31H147.135V15.7168H148.434V21.7617C148.948 21.6966 149.462 21.6315 149.977 21.5664C150.628 21.4818 151.139 21.4395 151.51 21.4395C152.232 21.4395 152.594 21.7943 152.594 22.5039V31ZM163.658 31H158.775V15.7168H160.133V29.7988H163.658V31ZM166.734 19.418H165.416V17.7773H166.734V19.418ZM166.715 31H165.436V21.498H166.715V31ZM172.35 31H170.504C169.775 31 169.41 30.6322 169.41 29.8965V22.6406H168.268V21.498H169.41V18.5391H170.689V21.498H172.35V22.6406H170.689V29.8574H172.35V31ZM179.322 29.8965C179.322 30.6322 178.958 31 178.229 31H175.104C174.374 31 174.01 30.6322 174.01 29.8965V22.6016C174.01 21.8659 174.374 21.498 175.104 21.498H178.229C178.958 21.498 179.322 21.8659 179.322 22.6016V26.0195L178.883 26.4785H175.27V29.916H178.062V28.1777H179.322V29.8965ZM178.062 25.4434V22.582H175.27V25.4434H178.062ZM189.293 25.7754H185.27V24.5645H189.293V25.7754Z" fill="white"/>
<mask id="path-8-inside-1_451_179" fill="white">
<path d="M0.0078125 113H250.008V140H0.0078125V113Z"/>
</mask>
<path d="M0.0078125 113V115H250.008V113V111H0.0078125V113Z" fill="#033E65" mask="url(#path-8-inside-1_451_179)"/>
<mask id="path-10-inside-2_451_179" fill="white">
<path d="M0.0078125 47H250.008V74H0.0078125V47Z"/>
</mask>
<path d="M0.0078125 47V49H250.008V47V45H0.0078125V47Z" fill="#033E65" mask="url(#path-10-inside-2_451_179)"/>
<path d="M74.5156 181.187C74.5156 181.426 74.4375 181.622 74.2812 181.773C74.125 181.924 73.9272 182 73.688 182H70.7363C70.4971 182 70.3018 181.924 70.1504 181.773C69.999 181.622 69.9233 181.426 69.9233 181.187V171.351C69.9233 171.111 69.999 170.916 70.1504 170.765C70.3018 170.613 70.4971 170.538 70.7363 170.538H73.688C73.9272 170.538 74.125 170.613 74.2812 170.765C74.4375 170.916 74.5156 171.111 74.5156 171.351V174.017H73.4902V171.438H70.9414V181.099H73.4902V178.279H74.5156V181.187ZM80.2725 181.172C80.2725 181.724 79.9966 182 79.4448 182H76.9985C76.4517 182 76.1782 181.724 76.1782 181.172V175.701C76.1782 175.149 76.4517 174.874 76.9985 174.874H79.4448C79.9966 174.874 80.2725 175.149 80.2725 175.701V181.172ZM79.2983 181.143V175.73H77.1523V181.143H79.2983ZM85.9561 182H84.9819V175.745L82.8359 175.804V182H81.8618V174.874H82.8359V175.071C83.2168 175.022 83.6001 174.971 83.9858 174.917C84.4546 174.859 84.8403 174.83 85.1431 174.83C85.6851 174.83 85.9561 175.096 85.9561 175.628V182ZM90.0942 182H88.71C88.1631 182 87.8896 181.724 87.8896 181.172V175.73H87.0327V174.874H87.8896V172.654H88.8491V174.874H90.0942V175.73H88.8491V181.143H90.0942V182ZM95.3237 181.172C95.3237 181.724 95.0503 182 94.5034 182H92.1597C91.6128 182 91.3394 181.724 91.3394 181.172V175.701C91.3394 175.149 91.6128 174.874 92.1597 174.874H94.5034C95.0503 174.874 95.3237 175.149 95.3237 175.701V178.265L94.9941 178.609H92.2842V181.187H94.3789V179.883H95.3237V181.172ZM94.3789 177.833V175.687H92.2842V177.833H94.3789ZM101.029 182H100.055V175.745L97.9092 175.804V182H96.9351V174.874H97.9092V175.071C98.29 175.022 98.6733 174.971 99.0591 174.917C99.5278 174.859 99.9136 174.83 100.216 174.83C100.758 174.83 101.029 175.096 101.029 175.628V182ZM105.167 182H103.783C103.236 182 102.963 181.724 102.963 181.172V175.73H102.106V174.874H102.963V172.654H103.922V174.874H105.167V175.73H103.922V181.143H105.167V182ZM113.136 182H109.474V170.538H110.492V181.099H113.136V182ZM118.505 181.172C118.505 181.724 118.229 182 117.677 182H115.231C114.684 182 114.411 181.724 114.411 181.172V175.701C114.411 175.149 114.684 174.874 115.231 174.874H117.677C118.229 174.874 118.505 175.149 118.505 175.701V181.172ZM117.531 181.143V175.73H115.385V181.143H117.531ZM124.123 182H123.163V181.802C122.777 181.856 122.392 181.907 122.006 181.956C121.527 182.015 121.144 182.044 120.856 182.044C120.324 182.044 120.058 181.78 120.058 181.253V178.653C120.058 178.106 120.333 177.833 120.885 177.833H123.178V175.687H121.083V176.902H120.138V175.701C120.138 175.149 120.412 174.874 120.958 174.874H123.302C123.849 174.874 124.123 175.149 124.123 175.701V182ZM123.178 181.114V178.594H121.002V181.158L123.178 181.114ZM129.77 182H128.803V181.802C127.758 181.963 127.179 182.044 127.067 182.044C126.652 182.044 126.317 181.905 126.063 181.626C125.81 181.343 125.683 180.992 125.683 180.572V176.404C125.683 175.965 125.827 175.601 126.115 175.313C126.403 175.02 126.764 174.874 127.199 174.874H128.803V170.538H129.77V182ZM128.803 181.114V175.73H127.455C126.918 175.73 126.649 176.006 126.649 176.558V180.367C126.649 180.914 126.918 181.187 127.455 181.187C127.582 181.187 128.031 181.163 128.803 181.114ZM135.358 181.172C135.358 181.724 135.084 182 134.538 182H132.194C131.647 182 131.374 181.724 131.374 181.172V175.701C131.374 175.149 131.647 174.874 132.194 174.874H134.538C135.084 174.874 135.358 175.149 135.358 175.701V178.265L135.028 178.609H132.318V181.187H134.413V179.883H135.358V181.172ZM134.413 177.833V175.687H132.318V177.833H134.413ZM141.02 182H140.053V181.802C139.008 181.963 138.429 182.044 138.317 182.044C137.902 182.044 137.567 181.905 137.313 181.626C137.06 181.343 136.933 180.992 136.933 180.572V176.404C136.933 175.965 137.077 175.601 137.365 175.313C137.653 175.02 138.014 174.874 138.449 174.874H140.053V170.538H141.02V182ZM140.053 181.114V175.73H138.705C138.168 175.73 137.899 176.006 137.899 176.558V180.367C137.899 180.914 138.168 181.187 138.705 181.187C138.832 181.187 139.281 181.163 140.053 181.114ZM150.438 181.187C150.438 181.426 150.36 181.622 150.204 181.773C150.053 181.924 149.857 182 149.618 182H146.498C146.259 182 146.063 181.924 145.912 181.773C145.761 181.622 145.685 181.426 145.685 181.187V170.538H146.703V181.099H149.42V170.538H150.438V181.187ZM156.254 180.469C156.254 180.909 156.11 181.275 155.822 181.568C155.534 181.856 155.172 182 154.738 182H153.134V184.703H152.16V174.874H153.134V175.071C153.52 175.022 153.905 174.974 154.291 174.925C154.779 174.861 155.163 174.83 155.441 174.83C155.983 174.83 156.254 175.096 156.254 175.628V180.469ZM155.28 180.323V175.745L153.134 175.804V181.143H154.481C155.014 181.143 155.28 180.87 155.28 180.323ZM160.509 171.395H159.132V174.874H160.348V175.73H159.132V182H158.173V175.73H157.345V174.874H158.173V171.365C158.173 170.813 158.446 170.538 158.993 170.538H160.509V171.395ZM165.116 177.217H164.157V175.745L162.362 175.804V182H161.388V174.874H162.362V175.071C162.685 175.022 163.009 174.971 163.336 174.917C163.727 174.859 164.052 174.83 164.311 174.83C164.848 174.83 165.116 175.096 165.116 175.628V177.217ZM170.448 181.172C170.448 181.724 170.172 182 169.621 182H167.174C166.627 182 166.354 181.724 166.354 181.172V175.701C166.354 175.149 166.627 174.874 167.174 174.874H169.621C170.172 174.874 170.448 175.149 170.448 175.701V181.172ZM169.474 181.143V175.73H167.328V181.143H169.474ZM176.132 182H175.158V175.745L173.012 175.804V182H172.038V174.874H173.012V175.071C173.393 175.022 173.776 174.971 174.162 174.917C174.63 174.859 175.016 174.83 175.319 174.83C175.861 174.83 176.132 175.096 176.132 175.628V182ZM180.27 182H178.886C178.339 182 178.065 181.724 178.065 181.172V175.73H177.208V174.874H178.065V172.654H179.025V174.874H180.27V175.73H179.025V181.143H180.27V182Z" fill="white"/>
<path d="M49.5854 102H45.9233V90.5376H46.9414V101.099H49.5854V102ZM54.9541 101.172C54.9541 101.724 54.6782 102 54.1265 102H51.6802C51.1333 102 50.8599 101.724 50.8599 101.172V95.7012C50.8599 95.1494 51.1333 94.8735 51.6802 94.8735H54.1265C54.6782 94.8735 54.9541 95.1494 54.9541 95.7012V101.172ZM53.98 101.143V95.7305H51.834V101.143H53.98ZM60.5718 102H59.6123V101.802C59.2266 101.856 58.8408 101.907 58.4551 101.956C57.9766 102.015 57.5933 102.044 57.3052 102.044C56.7729 102.044 56.5068 101.78 56.5068 101.253V98.6528C56.5068 98.106 56.7827 97.8325 57.3345 97.8325H59.627V95.6865H57.5322V96.9023H56.5874V95.7012C56.5874 95.1494 56.8608 94.8735 57.4077 94.8735H59.7515C60.2983 94.8735 60.5718 95.1494 60.5718 95.7012V102ZM59.627 101.114V98.5942H57.4517V101.158L59.627 101.114ZM66.2188 102H65.252V101.802C64.207 101.963 63.6284 102.044 63.5161 102.044C63.1011 102.044 62.7666 101.905 62.5127 101.626C62.2588 101.343 62.1318 100.992 62.1318 100.572V96.4043C62.1318 95.9648 62.2759 95.6011 62.564 95.313C62.8521 95.02 63.2134 94.8735 63.6479 94.8735H65.252V90.5376H66.2188V102ZM65.252 101.114V95.7305H63.9043C63.3672 95.7305 63.0986 96.0063 63.0986 96.5581V100.367C63.0986 100.914 63.3672 101.187 63.9043 101.187C64.0312 101.187 64.4805 101.163 65.252 101.114ZM71.8071 101.172C71.8071 101.724 71.5337 102 70.9868 102H68.6431C68.0962 102 67.8228 101.724 67.8228 101.172V95.7012C67.8228 95.1494 68.0962 94.8735 68.6431 94.8735H70.9868C71.5337 94.8735 71.8071 95.1494 71.8071 95.7012V98.2646L71.4775 98.6089H68.7676V101.187H70.8623V99.8833H71.8071V101.172ZM70.8623 97.8325V95.6865H68.7676V97.8325H70.8623ZM77.4688 102H76.502V101.802C75.457 101.963 74.8784 102.044 74.7661 102.044C74.3511 102.044 74.0166 101.905 73.7627 101.626C73.5088 101.343 73.3818 100.992 73.3818 100.572V96.4043C73.3818 95.9648 73.5259 95.6011 73.814 95.313C74.1021 95.02 74.4634 94.8735 74.8979 94.8735H76.502V90.5376H77.4688V102ZM76.502 101.114V95.7305H75.1543C74.6172 95.7305 74.3486 96.0063 74.3486 96.5581V100.367C74.3486 100.914 74.6172 101.187 75.1543 101.187C75.2812 101.187 75.7305 101.163 76.502 101.114ZM86.7559 102H85.7451L85.3423 99.4512H83.0645L82.6616 102H81.6802V101.971L83.7236 90.5083H84.7271L86.7559 102ZM85.2104 98.5503L84.207 92.3394L83.1963 98.5503H85.2104ZM90.7183 91.3945H89.3413V94.8735H90.5571V95.7305H89.3413V102H88.3818V95.7305H87.5542V94.8735H88.3818V91.3652C88.3818 90.8135 88.6553 90.5376 89.2021 90.5376H90.7183V91.3945ZM94.1606 102H92.7764C92.2295 102 91.9561 101.724 91.9561 101.172V95.7305H91.0991V94.8735H91.9561V92.6543H92.9155V94.8735H94.1606V95.7305H92.9155V101.143H94.1606V102ZM99.3901 101.172C99.3901 101.724 99.1167 102 98.5698 102H96.2261C95.6792 102 95.4058 101.724 95.4058 101.172V95.7012C95.4058 95.1494 95.6792 94.8735 96.2261 94.8735H98.5698C99.1167 94.8735 99.3901 95.1494 99.3901 95.7012V98.2646L99.0605 98.6089H96.3506V101.187H98.4453V99.8833H99.3901V101.172ZM98.4453 97.8325V95.6865H96.3506V97.8325H98.4453ZM104.729 97.2173H103.77V95.7451L101.976 95.8037V102H101.001V94.8735H101.976V95.0713C102.298 95.0225 102.623 94.9712 102.95 94.9175C103.34 94.8589 103.665 94.8296 103.924 94.8296C104.461 94.8296 104.729 95.0957 104.729 95.6279V97.2173ZM113.064 101.187C113.064 101.426 112.989 101.622 112.837 101.773C112.686 101.924 112.491 102 112.251 102H109.585C109.346 102 109.151 101.924 109 101.773C108.848 101.622 108.772 101.426 108.772 101.187V98.2793H109.791V101.099H112.046V90.5376H113.064V101.187ZM118.814 102H117.854V101.802C117.469 101.856 117.083 101.907 116.697 101.956C116.219 102.015 115.835 102.044 115.547 102.044C115.015 102.044 114.749 101.78 114.749 101.253V98.6528C114.749 98.106 115.025 97.8325 115.577 97.8325H117.869V95.6865H115.774V96.9023H114.83V95.7012C114.83 95.1494 115.103 94.8735 115.65 94.8735H117.994C118.541 94.8735 118.814 95.1494 118.814 95.7012V102ZM117.869 101.114V98.5942H115.694V101.158L117.869 101.114ZM124.424 94.8735L122.659 102.015H121.773L120 94.8735H121.004L122.22 100.484L123.45 94.8735H124.424ZM129.654 102H128.694V101.802C128.309 101.856 127.923 101.907 127.537 101.956C127.059 102.015 126.675 102.044 126.387 102.044C125.855 102.044 125.589 101.78 125.589 101.253V98.6528C125.589 98.106 125.865 97.8325 126.417 97.8325H128.709V95.6865H126.614V96.9023H125.669V95.7012C125.669 95.1494 125.943 94.8735 126.49 94.8735H128.833C129.38 94.8735 129.654 95.1494 129.654 95.7012V102ZM128.709 101.114V98.5942H126.534V101.158L128.709 101.114ZM135.835 101.187C135.835 101.426 135.76 101.622 135.608 101.773C135.462 101.924 135.269 102 135.03 102H132.144C131.905 102 131.707 101.924 131.551 101.773C131.399 101.622 131.324 101.426 131.324 101.187V98.2793H132.342V101.099H134.817V98.3672L131.653 94.5439C131.434 94.2803 131.324 93.9897 131.324 93.6724V91.3506C131.324 91.1113 131.399 90.916 131.551 90.7646C131.707 90.6133 131.905 90.5376 132.144 90.5376H135.03C135.269 90.5376 135.462 90.6133 135.608 90.7646C135.76 90.916 135.835 91.1113 135.835 91.3506V94.0166H134.817V91.4385H132.342V93.8555L135.521 97.6787C135.73 97.9326 135.835 98.2183 135.835 98.5356V101.187ZM141.475 101.172C141.475 101.724 141.202 102 140.655 102H138.34C137.793 102 137.52 101.724 137.52 101.172V95.7012C137.52 95.1494 137.793 94.8735 138.34 94.8735H140.655C141.202 94.8735 141.475 95.1494 141.475 95.7012V97.1221H140.516V95.7305H138.494V101.143H140.516V99.5537H141.475V101.172ZM146.785 97.2173H145.826V95.7451L144.031 95.8037V102H143.057V94.8735H144.031V95.0713C144.354 95.0225 144.678 94.9712 145.005 94.9175C145.396 94.8589 145.721 94.8296 145.979 94.8296C146.517 94.8296 146.785 95.0957 146.785 95.6279V97.2173ZM149.056 93.3135H148.067V92.083H149.056V93.3135ZM149.041 102H148.082V94.8735H149.041V102ZM154.798 100.469C154.798 100.909 154.654 101.275 154.366 101.568C154.078 101.856 153.716 102 153.282 102H151.678V104.703H150.704V94.8735H151.678V95.0713C152.063 95.0225 152.449 94.9736 152.835 94.9248C153.323 94.8613 153.707 94.8296 153.985 94.8296C154.527 94.8296 154.798 95.0957 154.798 95.6279V100.469ZM153.824 100.323V95.7451L151.678 95.8037V101.143H153.025C153.558 101.143 153.824 100.87 153.824 100.323ZM158.921 102H157.537C156.99 102 156.717 101.724 156.717 101.172V95.7305H155.86V94.8735H156.717V92.6543H157.676V94.8735H158.921V95.7305H157.676V101.143H158.921V102ZM168.025 102H167.007V96.4922H164.246V102H163.228V90.5376H164.246V95.5767H167.007V90.5376H168.025V102ZM173.76 94.8735L172.046 101.941L171.336 104.703H170.376L171.094 101.941L169.336 94.8735H170.34L171.556 100.484L172.786 94.8735H173.76ZM179.012 102H178.045V101.802C177 101.963 176.421 102.044 176.309 102.044C175.894 102.044 175.56 101.905 175.306 101.626C175.052 101.343 174.925 100.992 174.925 100.572V96.4043C174.925 95.9648 175.069 95.6011 175.357 95.313C175.645 95.02 176.006 94.8735 176.441 94.8735H178.045V90.5376H179.012V102ZM178.045 101.114V95.7305H176.697C176.16 95.7305 175.892 96.0063 175.892 96.5581V100.367C175.892 100.914 176.16 101.187 176.697 101.187C176.824 101.187 177.273 101.163 178.045 101.114ZM184.344 97.2173H183.384V95.7451L181.59 95.8037V102H180.616V94.8735H181.59V95.0713C181.912 95.0225 182.237 94.9712 182.564 94.9175C182.955 94.8589 183.279 94.8296 183.538 94.8296C184.075 94.8296 184.344 95.0957 184.344 95.6279V97.2173ZM189.61 102H188.65V101.802C188.265 101.856 187.879 101.907 187.493 101.956C187.015 102.015 186.631 102.044 186.343 102.044C185.811 102.044 185.545 101.78 185.545 101.253V98.6528C185.545 98.106 185.821 97.8325 186.373 97.8325H188.665V95.6865H186.57V96.9023H185.625V95.7012C185.625 95.1494 185.899 94.8735 186.446 94.8735H188.79C189.336 94.8735 189.61 95.1494 189.61 95.7012V102ZM188.665 101.114V98.5942H186.49V101.158L188.665 101.114ZM193.77 102H192.386C191.839 102 191.565 101.724 191.565 101.172V95.7305H190.708V94.8735H191.565V92.6543H192.525V94.8735H193.77V95.7305H192.525V101.143H193.77V102ZM196.048 93.3135H195.059V92.083H196.048V93.3135ZM196.033 102H195.074V94.8735H196.033V102ZM201.79 101.172C201.79 101.724 201.514 102 200.962 102H198.516C197.969 102 197.696 101.724 197.696 101.172V95.7012C197.696 95.1494 197.969 94.8735 198.516 94.8735H200.962C201.514 94.8735 201.79 95.1494 201.79 95.7012V101.172ZM200.816 101.143V95.7305H198.67V101.143H200.816ZM207.474 102H206.5V95.7451L204.354 95.8037V102H203.379V94.8735H204.354V95.0713C204.734 95.0225 205.118 94.9712 205.503 94.9175C205.972 94.8589 206.358 94.8296 206.661 94.8296C207.203 94.8296 207.474 95.0957 207.474 95.6279V102Z" fill="white"/>
<line x1="0.999781" y1="78" x2="250" y2="76" stroke="#033E65" stroke-width="2" stroke-dasharray="4 4"/>
<line x1="0.00381253" y1="157" x2="250.004" y2="156" stroke="#033E65" stroke-width="2" stroke-dasharray="4 4"/>
<path d="M220.715 168.293C220.324 167.902 219.691 167.902 219.301 168.293L212.937 174.657C212.546 175.047 212.546 175.681 212.937 176.071C213.327 176.462 213.96 176.462 214.351 176.071L220.008 170.414L225.665 176.071C226.055 176.462 226.688 176.462 227.079 176.071C227.469 175.681 227.469 175.047 227.079 174.657L220.715 168.293ZM220.008 186H221.008V169H220.008H219.008V186H220.008Z" fill="white"/>
<path d="M33.7149 168.293C33.3244 167.902 32.6912 167.902 32.3007 168.293L25.9367 174.657C25.5462 175.047 25.5462 175.681 25.9367 176.071C26.3273 176.462 26.9604 176.462 27.351 176.071L33.0078 170.414L38.6647 176.071C39.0552 176.462 39.6884 176.462 40.0789 176.071C40.4694 175.681 40.4694 175.047 40.0789 174.657L33.7149 168.293ZM33.0078 186H34.0078V169H33.0078H32.0078V186H33.0078Z" fill="white"/>
</svg>
