<svg width="36" height="33" viewBox="0 0 36 33" fill="none" xmlns="http://www.w3.org/2000/svg">
<path d="M16.5 5.5008H6C5.20435 5.5008 4.44129 5.79053 3.87868 6.30626C3.31607 6.82198 3 7.52145 3 8.2508V27.5008C3 28.2301 3.31607 28.9296 3.87868 29.4453C4.44129 29.9611 5.20435 30.2508 6 30.2508H27C27.7956 30.2508 28.5587 29.9611 29.1213 29.4453C29.6839 28.9296 30 28.2301 30 27.5008V17.8758M27.75 3.4383C28.3467 2.89129 29.1561 2.58398 30 2.58398C30.8439 2.58398 31.6533 2.89129 32.25 3.4383C32.8467 3.98531 33.182 4.72721 33.182 5.5008C33.182 6.27439 32.8467 7.01629 32.25 7.5633L18 20.6258L12 22.0008L13.5 16.5008L27.75 3.4383Z" stroke="white" stroke-width="4" stroke-linecap="round" stroke-linejoin="round"/>
</svg>
