<svg width="36" height="36" viewBox="0 0 36 36" fill="none" xmlns="http://www.w3.org/2000/svg">
<path d="M4.5 9H7.5M7.5 9H31.5M7.5 9V30C7.5 30.7957 7.81607 31.5587 8.37868 32.1213C8.94129 32.6839 9.70435 33 10.5 33H25.5C26.2956 33 27.0587 32.6839 27.6213 32.1213C28.1839 31.5587 28.5 30.7957 28.5 30V9M12 9V6C12 5.20435 12.3161 4.44129 12.8787 3.87868C13.4413 3.31607 14.2044 3 15 3H21C21.7956 3 22.5587 3.31607 23.1213 3.87868C23.6839 4.44129 24 5.20435 24 6V9M15 16.5V25.5M21 16.5V25.5" stroke="#f61715" stroke-width="4" stroke-linecap="round" stroke-linejoin="round"/>
</svg>
